HIERARCHY
ROOT Hips
{
	OFFSET 0.000000 121.760803 0.000000
	CHANNELS 6 Xposition Yposition Zposition Xrotation Yrotation Zrotation 
	JOINT Spine
	{
		OFFSET 0.072000 7.257294 -0.789700
		CHANNELS 3 Xrotation Yrotation Zrotation
		JOINT Spine1
		{
			OFFSET 0.000000 12.508769 -0.658067
			CHANNELS 3 Xrotation Yrotation Zrotation
			JOINT Spine1_split
			{
				OFFSET 0.000000 12.508769 -0.658067
				CHANNELS 3 Xrotation Yrotation Zrotation
				JOINT Spine2
				{
					OFFSET 0.000000 12.508769 -0.658067
					CHANNELS 3 Xrotation Yrotation Zrotation
					JOINT Neck
					{
						OFFSET 0.000000 14.033295 7.520400
						CHANNELS 3 Xrotation Yrotation Zrotation
						JOINT Head
						{
							OFFSET 0.000000 8.198502 5.703100
							CHANNELS 3 Xrotation Yrotation Zrotation
							JOINT HeadTop_End
							{
								OFFSET 0.000000 17.760803 13.332701
								CHANNELS 3 Xrotation Yrotation Zrotation
								End Site
								{
									OFFSET 0.000000 0.000000 0.000000
								}
							}
						}
					}
					JOINT LeftShoulder
					{
						OFFSET 6.292450 5.785301 -0.669000
						CHANNELS 3 Xrotation Yrotation Zrotation
						JOINT LeftShoulder_split
						{
							OFFSET 6.292450 5.785301 -0.669000
							CHANNELS 3 Xrotation Yrotation Zrotation
							JOINT LeftArm
							{
								OFFSET 13.907140 -6.093903 1.965100
								CHANNELS 3 Xrotation Yrotation Zrotation
								JOINT LeftForeArm
								{
									OFFSET 34.140198 0.000000 0.000000
									CHANNELS 3 Xrotation Yrotation Zrotation
									JOINT LeftHand
									{
										OFFSET 40.960209 0.000000 0.000000
										CHANNELS 3 Xrotation Yrotation Zrotation
										JOINT LeftHandThumb1
										{
											OFFSET 10.006996 -7.170425 9.573125
											CHANNELS 3 Xrotation Yrotation Zrotation
											JOINT LeftHandThumb2
											{
												OFFSET 1.835007 -1.059448 1.059443
												CHANNELS 3 Xrotation Yrotation Zrotation
												JOINT LeftHandThumb3
												{
													OFFSET 2.112267 -1.219513 1.219518
													CHANNELS 3 Xrotation Yrotation Zrotation
													JOINT LeftHandThumb4
													{
														OFFSET 4.843811 -2.796570 2.796576
														CHANNELS 3 Xrotation Yrotation Zrotation
														End Site
														{
															OFFSET 0.000000 0.000000 0.000000
														}
													}
												}
											}
										}
										JOINT LeftHandIndex1
										{
											OFFSET 18.389847 -0.922348 4.596882
											CHANNELS 3 Xrotation Yrotation Zrotation
											JOINT LeftHandIndex2
											{
												OFFSET 4.711273 0.000000 0.000000
												CHANNELS 3 Xrotation Yrotation Zrotation
												JOINT LeftHandIndex3
												{
													OFFSET 2.886131 0.000000 0.000000
													CHANNELS 3 Xrotation Yrotation Zrotation
													JOINT LeftHandIndex4
													{
														OFFSET 6.145912 0.000000 0.000000
														CHANNELS 3 Xrotation Yrotation Zrotation
														End Site
														{
															OFFSET 0.000000 0.000000 0.000000
														}
													}
												}
											}
										}
										JOINT LeftHandMiddle1
										{
											OFFSET 18.013008 0.000000 0.000000
											CHANNELS 3 Xrotation Yrotation Zrotation
											JOINT LeftHandMiddle2
											{
												OFFSET 4.946693 0.000000 0.000000
												CHANNELS 3 Xrotation Yrotation Zrotation
												JOINT LeftHandMiddle3
												{
													OFFSET 3.342232 0.000000 0.000000
													CHANNELS 3 Xrotation Yrotation Zrotation
													JOINT LeftHandMiddle4
													{
														OFFSET 4.461754 0.000000 0.000000
														CHANNELS 3 Xrotation Yrotation Zrotation
														End Site
														{
															OFFSET 0.000000 0.000000 0.000000
														}
													}
												}
											}
										}
										JOINT LeftHandRing1
										{
											OFFSET 15.849892 -0.102921 -4.126150
											CHANNELS 3 Xrotation Yrotation Zrotation
											JOINT LeftHandRing2
											{
												OFFSET 3.527054 0.000000 0.000000
												CHANNELS 3 Xrotation Yrotation Zrotation
												JOINT LeftHandRing3
												{
													OFFSET 2.961098 0.000000 0.000000
													CHANNELS 3 Xrotation Yrotation Zrotation
													JOINT LeftHandRing4
													{
														OFFSET 4.927200 0.000000 0.000000
														CHANNELS 3 Xrotation Yrotation Zrotation
														End Site
														{
															OFFSET 0.000000 0.000000 0.000000
														}
													}
												}
											}
										}
										JOINT LeftHandPinky1
										{
											OFFSET 12.791824 -0.832031 -6.799156
											CHANNELS 3 Xrotation Yrotation Zrotation
											JOINT LeftHandPinky2
											{
												OFFSET 3.327133 0.000000 0.000000
												CHANNELS 3 Xrotation Yrotation Zrotation
												JOINT LeftHandPinky3
												{
													OFFSET 3.014900 0.000000 0.000000
													CHANNELS 3 Xrotation Yrotation Zrotation
													JOINT LeftHandPinky4
													{
														OFFSET 5.847786 0.000000 0.000000
														CHANNELS 3 Xrotation Yrotation Zrotation
														End Site
														{
															OFFSET 0.000000 0.000000 0.000000
														}
													}
												}
											}
										}
									}
								}
							}
						}
					}
					JOINT RightShoulder
					{
						OFFSET -6.292450 5.785301 -0.669000
						CHANNELS 3 Xrotation Yrotation Zrotation
						JOINT RightShoulder_split
						{
							OFFSET -6.292450 5.785301 -0.669000
							CHANNELS 3 Xrotation Yrotation Zrotation
							JOINT RightArm
							{
								OFFSET -13.907140 -6.093903 1.965100
								CHANNELS 3 Xrotation Yrotation Zrotation
								JOINT RightForeArm
								{
									OFFSET -34.140198 0.000000 0.000000
									CHANNELS 3 Xrotation Yrotation Zrotation
									JOINT RightHand
									{
										OFFSET -40.960209 0.000000 0.000000
										CHANNELS 3 Xrotation Yrotation Zrotation
										JOINT RightHandThumb1
										{
											OFFSET -10.007050 -7.170456 9.573117
											CHANNELS 3 Xrotation Yrotation Zrotation
											JOINT RightHandThumb2
											{
												OFFSET -1.835007 -1.059448 1.059443
												CHANNELS 3 Xrotation Yrotation Zrotation
												JOINT RightHandThumb3
												{
													OFFSET -2.112267 -1.219513 1.219518
													CHANNELS 3 Xrotation Yrotation Zrotation
													JOINT RightHandThumb4
													{
														OFFSET -4.843834 -2.796585 2.796590
														CHANNELS 3 Xrotation Yrotation Zrotation
														End Site
														{
															OFFSET 0.000000 0.000000 0.000000
														}
													}
												}
											}
										}
										JOINT RightHandIndex1
										{
											OFFSET -18.389870 -0.922424 4.596786
											CHANNELS 3 Xrotation Yrotation Zrotation
											JOINT RightHandIndex2
											{
												OFFSET -4.711273 0.000000 0.000000
												CHANNELS 3 Xrotation Yrotation Zrotation
												JOINT RightHandIndex3
												{
													OFFSET -2.886131 0.000000 0.000000
													CHANNELS 3 Xrotation Yrotation Zrotation
													JOINT RightHandIndex4
													{
														OFFSET -6.145920 0.000000 0.000000
														CHANNELS 3 Xrotation Yrotation Zrotation
														End Site
														{
															OFFSET 0.000000 0.000000 0.000000
														}
													}
												}
											}
										}
										JOINT RightHandMiddle1
										{
											OFFSET -18.013008 0.000000 0.000000
											CHANNELS 3 Xrotation Yrotation Zrotation
											JOINT RightHandMiddle2
											{
												OFFSET -4.946693 0.000000 0.000000
												CHANNELS 3 Xrotation Yrotation Zrotation
												JOINT RightHandMiddle3
												{
													OFFSET -3.342232 0.000000 0.000000
													CHANNELS 3 Xrotation Yrotation Zrotation
													JOINT RightHandMiddle4
													{
														OFFSET -4.461754 0.000000 0.000000
														CHANNELS 3 Xrotation Yrotation Zrotation
														End Site
														{
															OFFSET 0.000000 0.000000 0.000000
														}
													}
												}
											}
										}
										JOINT RightHandRing1
										{
											OFFSET -15.849876 -0.102936 -4.126237
											CHANNELS 3 Xrotation Yrotation Zrotation
											JOINT RightHandRing2
											{
												OFFSET -3.527054 0.000000 0.000000
												CHANNELS 3 Xrotation Yrotation Zrotation
												JOINT RightHandRing3
												{
													OFFSET -2.961098 0.000000 0.000000
													CHANNELS 3 Xrotation Yrotation Zrotation
													JOINT RightHandRing4
													{
														OFFSET -4.927200 0.000000 0.000000
														CHANNELS 3 Xrotation Yrotation Zrotation
														End Site
														{
															OFFSET 0.000000 0.000000 0.000000
														}
													}
												}
											}
										}
										JOINT RightHandPinky1
										{
											OFFSET -12.791786 -0.832077 -6.799222
											CHANNELS 3 Xrotation Yrotation Zrotation
											JOINT RightHandPinky2
											{
												OFFSET -3.327133 0.000000 0.000000
												CHANNELS 3 Xrotation Yrotation Zrotation
												JOINT RightHandPinky3
												{
													OFFSET -3.014900 0.000000 0.000000
													CHANNELS 3 Xrotation Yrotation Zrotation
													JOINT RightHandPinky4
													{
														OFFSET -5.847786 0.000000 0.000000
														CHANNELS 3 Xrotation Yrotation Zrotation
														End Site
														{
															OFFSET 0.000000 0.000000 0.000000
														}
													}
												}
											}
										}
									}
								}
							}
						}
					}
				}
			}
		}
	}
	JOINT LeftUpLeg
	{
		OFFSET 13.026900 -6.336304 -1.092800
		CHANNELS 3 Xrotation Yrotation Zrotation
		JOINT LeftLeg
		{
			OFFSET 0.524474 -46.096886 9.782700
			CHANNELS 3 Xrotation Yrotation Zrotation
			JOINT LeftFoot
			{
				OFFSET -0.524474 -53.427422 -12.948200
				CHANNELS 3 Xrotation Yrotation Zrotation
				JOINT LeftToeBase
				{
					OFFSET 0.192200 -14.009700 16.364100
					CHANNELS 3 Xrotation Yrotation Zrotation
					JOINT LeftToe_End
					{
						OFFSET -1.784700 -0.561700 9.474800
						CHANNELS 3 Xrotation Yrotation Zrotation
						End Site
						{
							OFFSET 0.000000 0.000000 0.000000
						}
					}
				}
			}
		}
	}
	JOINT RightUpLeg
	{
		OFFSET -12.883000 -6.336304 -1.092800
		CHANNELS 3 Xrotation Yrotation Zrotation
		JOINT RightLeg
		{
			OFFSET -0.524587 -46.096825 9.782800
			CHANNELS 3 Xrotation Yrotation Zrotation
			JOINT RightFoot
			{
				OFFSET 0.524587 -53.427383 -12.948300
				CHANNELS 3 Xrotation Yrotation Zrotation
				JOINT RightToeBase
				{
					OFFSET -0.192200 -14.009700 16.364100
					CHANNELS 3 Xrotation Yrotation Zrotation
					JOINT RightToe_End
					{
						OFFSET 1.784700 -0.561700 9.474800
						CHANNELS 3 Xrotation Yrotation Zrotation
						End Site
						{
							OFFSET 0.000000 0.000000 0.000000
						}
					}
				}
			}
		}
	}
}
MOTION
Frames: 5
Frame Time: 0.016667
-18.728104 17.893784 -85.941856 -87.070179 25.982770 6.743187 54.306049 10.197453 -4.036346 20.535753 3.211058 0.186205 0.000000 0.000000 0.000000 20.612225 2.862298 0.333972 6.354676 0.273874 -2.216756 32.669211 -1.249306 -2.725191 0.000001 -0.000001 -0.000000 0.690091 -7.698573 -13.129599 0.000000 0.000000 0.000000 -23.121924 -24.042635 -24.824246 0.000055 -63.058793 0.000048 -1.509126 -20.163907 -5.466383 -8.685556 -15.954381 1.209995 21.854512 36.310819 -10.832603 0.138402 22.599836 19.532531 0.000000 0.000003 0.000001 0.653217 -15.996955 0.940944 1.493568 3.908528 -41.813954 0.838333 3.021693 -31.005347 0.000002 0.000001 0.000001 0.176390 0.770537 4.717971 1.760999 4.187614 -45.600938 0.967743 3.226952 -33.379309 0.000001 0.000000 -0.000002 -0.158535 11.618691 1.853050 2.336930 4.681173 -53.039482 0.661820 2.706796 -27.474252 -0.000001 0.000002 0.000004 5.097409 24.546783 -12.359232 2.096996 4.491178 -50.039199 2.051386 4.452707 -49.454545 -0.000001 0.000001 0.000000 0.136774 13.961789 14.788461 0.000000 0.000000 0.000000 -26.720451 -13.516579 33.282118 0.000000 41.763065 0.000001 -11.101727 -25.897381 44.633893 -8.583325 16.136739 -7.178719 7.869601 -18.273626 9.753301 0.110989 -5.682738 -15.719759 -0.000000 0.000000 -0.000003 1.587536 7.438681 -9.026629 0.644894 -2.366449 30.483930 0.278297 -1.587323 19.887301 0.000003 0.000000 0.000001 2.008396 2.097539 -33.232805 0.823270 -2.645916 34.561652 0.347148 -1.766043 22.240431 0.000000 0.000002 -0.000000 -0.161316 -5.730962 -3.494306 1.189556 -3.110745 41.846042 0.187742 -1.310297 16.306798 0.000001 -0.000001 -0.000001 -0.080017 -27.024004 -1.328597 1.055484 -2.954428 39.312137 0.931944 -2.796952 36.850039 -0.000001 0.000001 0.000002 -63.121521 5.860368 37.607927 67.993939 8.898214 -2.533417 22.985627 8.357485 -12.131435 0.139577 -0.000027 0.000011 0.000004 -0.000000 -0.000000 -55.195397 12.658195 -40.159767 107.030314 0.616283 6.592049 32.974132 4.784978 30.909946 0.000001 -0.000003 0.000005 0.000001 -0.000001 0.000002 
-18.792179 17.818237 -87.734436 -91.453678 25.417077 7.127230 54.228792 11.285942 -3.263366 20.987669 3.430232 0.332314 0.000000 0.000000 0.000000 21.083092 3.010459 0.480114 6.011284 0.280396 -2.502183 29.147535 -1.772882 -3.475374 0.000003 0.000002 0.000001 0.654635 -7.640295 -13.060561 0.000000 0.000000 0.000000 -19.361652 -24.125229 -21.499014 -0.000014 -64.350778 -0.000014 -16.742462 -19.468578 -13.423404 -8.647218 -15.819254 1.255086 21.674197 36.224940 -10.484485 0.031424 22.546854 19.494900 0.000000 0.000002 -0.000001 0.555387 -15.865717 0.644510 1.453123 3.862928 -41.217070 0.820749 2.992324 -30.670473 -0.000003 -0.000000 -0.000001 0.167785 0.758909 4.236378 1.725446 4.152577 -45.111962 0.956610 3.210060 -33.181472 0.000001 0.000000 -0.000003 -0.074928 11.507221 1.341950 2.289185 4.644980 -52.452151 0.662741 2.708586 -27.493981 0.000000 0.000000 0.000000 5.165643 24.212505 -12.763516 2.067871 4.466718 -49.666349 2.023921 4.429085 -49.099317 -0.000000 0.000001 -0.000000 0.281185 14.030645 13.544995 0.000000 0.000000 0.000000 -21.025802 -14.046615 33.984354 0.000005 42.419703 -0.000003 -13.856776 -29.911205 39.389551 -8.524681 16.035843 -7.103570 7.804544 -18.123448 9.475618 0.007337 -5.624724 -15.681804 0.000001 0.000000 -0.000004 1.572302 7.449082 -8.920411 0.613299 -2.311966 29.709827 0.264087 -1.547495 19.367695 0.000003 -0.000001 -0.000001 1.979184 2.094971 -32.626922 0.792735 -2.601078 33.894431 0.335584 -1.737479 21.861719 0.000001 0.000000 0.000000 -0.150401 -5.701273 -3.349970 1.148412 -3.064243 41.082095 0.183957 -1.297338 16.140934 -0.000000 0.000001 -0.000001 -0.000293 -26.834548 -1.130549 1.024675 -2.916443 38.710585 0.905174 -2.760916 36.297859 -0.000002 0.000000 -0.000005 -59.191184 5.261436 37.216523 66.057690 8.445537 -1.127536 24.208888 8.125591 -10.275566 0.216197 0.000024 0.000009 0.000002 0.000000 0.000000 -50.905953 11.637485 -36.126633 105.095663 -0.361009 4.014640 31.802355 3.838432 30.460321 -0.000003 0.000002 0.000001 0.000001 0.000000 -0.000000 
-18.815269 17.845192 -89.497826 -96.056898 24.807768 7.694467 54.114984 12.032585 -2.420366 21.302518 3.531563 0.486730 0.000000 0.000000 0.000000 21.413449 3.045614 0.639503 5.772046 0.276195 -2.724583 26.591362 -2.420399 -3.858282 -0.000003 -0.000000 0.000002 0.618662 -7.705187 -13.035389 0.000000 0.000000 0.000000 -16.051283 -24.091795 -18.542294 -0.000003 -64.438935 -0.000008 -29.438300 -14.660909 -23.712738 -8.606918 -15.678298 1.302609 21.493738 36.137780 -10.137178 -0.075371 22.493165 19.456786 -0.000001 0.000001 -0.000002 0.451697 -15.724118 0.326253 1.413711 3.817612 -40.628960 0.803785 2.963538 -30.343590 0.000000 0.000000 -0.000000 0.157830 0.750881 3.729250 1.690770 4.117849 -44.631103 0.945989 3.193783 -32.991241 0.000001 -0.000000 0.000000 0.010157 11.394060 0.806342 2.242453 4.608811 -51.872958 0.664022 2.711042 -27.521025 0.000000 -0.000000 -0.000000 5.234633 23.869457 -13.188060 2.039542 4.442573 -49.301682 1.997152 4.405834 -48.751998 -0.000001 0.000000 0.000001 0.368021 14.232613 12.568263 0.000000 0.000000 0.000000 -15.163283 -12.817751 34.004449 0.000008 41.556893 -0.000005 -18.970123 -29.594448 30.817619 -8.466253 15.928992 -7.031908 7.746156 -17.979942 9.203204 -0.094121 -5.572744 -15.646010 -0.000000 -0.000000 0.000003 1.531153 7.435905 -8.676668 0.587249 -2.265748 29.057595 0.253275 -1.516403 18.963431 -0.000001 -0.000000 0.000001 1.934920 2.080025 -31.865397 0.767989 -2.563884 33.345120 0.327577 -1.717400 21.596170 -0.000001 0.000001 0.000000 -0.131342 -5.679946 -3.068226 1.114172 -3.024578 40.437363 0.182700 -1.292947 16.084858 -0.000001 -0.000001 -0.000002 0.140570 -26.599525 -0.778687 1.000176 -2.885645 38.226455 0.884271 -2.732260 35.861635 -0.000000 -0.000001 -0.000002 -54.820389 4.996151 37.260188 64.017410 7.818010 0.175415 25.513760 7.168604 -9.477729 0.306007 0.000009 -0.000004 0.000003 0.000000 0.000001 -46.137539 11.063406 -32.499328 103.540518 -1.808941 1.386741 30.429746 2.945066 29.893064 0.000008 -0.000000 0.000002 -0.000000 0.000000 0.000001 
-18.821665 18.009087 -91.185890 -100.823557 24.284748 8.347355 53.782368 12.381274 -1.494403 21.392890 3.485083 0.638499 0.000000 0.000000 0.000000 21.512840 2.946442 0.804809 5.701512 0.269787 -2.859050 25.666237 -3.057667 -3.930413 0.000001 0.000000 -0.000002 0.583243 -7.873918 -13.009926 0.000000 0.000000 0.000000 -13.224183 -24.020102 -16.352839 0.000065 -63.453714 0.000065 -35.332213 -4.373211 -31.544679 -8.564863 -15.531819 1.352415 21.313238 36.049475 -9.790857 -0.181885 22.438742 19.418189 -0.000001 -0.000003 0.000001 0.342697 -15.572428 -0.012859 1.375380 3.772571 -40.049644 0.787359 2.935360 -30.024576 -0.000000 0.000001 -0.000000 0.146524 0.746368 3.197635 1.656949 4.083397 -44.158273 0.935834 3.178105 -32.808520 -0.000000 0.000000 0.000000 0.096275 11.279247 0.247312 2.196770 4.572673 -51.301909 0.665664 2.714115 -27.555147 -0.000001 0.000000 -0.000001 5.303517 23.518144 -13.631760 2.011988 4.418787 -48.945129 1.971141 4.382961 -48.412541 -0.000000 0.000001 0.000001 0.413007 14.399156 11.899825 0.000000 0.000000 0.000000 -8.989448 -9.774897 33.560175 0.000002 39.122238 -0.000001 -23.648645 -24.014356 23.764217 -8.408928 15.818481 -6.963143 7.693867 -17.841815 8.937322 -0.193300 -5.525019 -15.612252 0.000001 0.000001 -0.000001 1.460717 7.396304 -8.275163 0.567202 -2.229304 28.546369 0.246183 -1.495583 18.693311 0.000000 -0.000001 -0.000001 1.874015 2.050741 -30.926837 0.749641 -2.535824 32.932638 0.323589 -1.707285 21.462640 -0.000000 -0.000001 0.000002 -0.103154 -5.668197 -2.628687 1.087584 -2.993137 39.930696 0.184342 -1.298632 16.157535 0.000004 0.000000 0.000000 0.348464 -26.329088 -0.252835 0.982748 -2.863408 37.878955 0.869951 -2.712366 35.560120 0.000001 0.000001 -0.000001 -50.227613 4.917603 37.837397 62.054700 7.220441 1.387535 26.368673 5.675835 -9.761400 0.390780 -0.000003 0.000019 0.000000 0.000000 0.000000 -40.976644 10.740416 -29.515969 102.198898 -3.692889 -1.078187 29.208911 2.259283 29.284798 -0.000013 -0.000001 0.000007 0.000002 -0.000001 0.000002 
-18.840919 18.329941 -92.765137 -105.618801 23.944319 8.971069 53.058911 12.317043 -0.521996 21.192018 3.289841 0.753231 0.000000 0.000000 0.000000 21.312752 2.716132 0.941961 5.822420 0.265670 -2.893482 26.499326 -3.586465 -3.784530 -0.000000 0.000001 -0.000002 0.548374 -8.140327 -12.910354 0.000000 0.000000 0.000000 -10.892215 -23.869744 -15.235360 0.000018 -61.758325 0.000010 -33.746489 7.540027 -34.231242 -8.521111 -15.380017 1.404411 21.132791 35.960065 -9.445728 -0.288111 22.383677 19.379140 -0.000002 0.000002 -0.000000 0.228957 -15.410963 -0.371918 1.338065 3.727801 -39.479105 0.771503 2.907762 -29.713369 -0.000000 0.000001 0.000000 0.133914 0.745273 2.642570 1.624000 4.049262 -43.693533 0.926151 3.163023 -32.633162 0.000000 0.000000 0.000000 0.183022 11.162775 -0.334006 2.152080 4.536618 -50.739088 0.667591 2.717839 -27.596123 -0.000002 -0.000000 0.000000 5.371500 23.158991 -14.093581 1.985207 4.395389 -48.596584 1.945853 4.360463 -48.080850 0.000003 -0.000002 0.000001 0.431949 14.333470 11.516028 0.000000 0.000000 0.000000 -2.584131 -5.159814 32.975925 0.000004 35.399484 -0.000006 -26.280013 -14.900500 20.746737 -8.353464 15.707343 -6.896032 7.646158 -17.706531 8.678076 -0.290602 -5.478677 -15.579957 0.000001 0.000000 -0.000000 1.362714 7.331083 -7.720879 0.552680 -2.202406 28.170504 0.242520 -1.484756 18.552908 -0.000001 0.000002 -0.000001 1.797659 2.007040 -29.816634 0.737263 -2.516622 32.651938 0.323423 -1.706888 21.457364 -0.000003 0.000001 -0.000002 -0.066281 -5.665581 -2.036093 1.068120 -2.969751 39.556665 0.188864 -1.314146 16.356053 0.000002 -0.000000 0.000000 0.617471 -26.033778 0.439485 0.972007 -2.849562 37.663357 0.861856 -2.701022 35.388730 -0.000002 0.000000 -0.000002 -45.737850 4.896276 38.979654 60.260095 6.692281 2.524870 26.541980 3.970570 -10.816454 0.454300 0.000031 -0.000013 0.000001 0.000001 -0.000000 -35.716282 10.505942 -27.202994 100.996225 -5.669996 -3.216363 28.317105 1.811838 28.448334 -0.000004 0.000010 0.000002 -0.000000 0.000001 -0.000001 
